<svg xmlns="http://www.w3.org/2000/svg" viewBox="0 0 640 160">
  <style>
    @keyframes pop-in { 0% { opacity: 0; transform: scale(0.5); } 100% { opacity: 1; transform: scale(1); } }
    @keyframes glow { 0%,100% { opacity: 0.6; } 50% { opacity: 1; } }
    .glow { animation: glow 2s ease-in-out infinite; }
  </style>
  <rect width="640" height="160" fill="#0a0a1a"/>
  <!-- Feature icons grid -->
  <g>
    <!-- Row 1 -->
    <rect x="40" y="20" width="56" height="44" fill="#1e293b" rx="4"/>
    <text x="68" y="40" text-anchor="middle" font-size="14">🔍</text>
    <text x="68" y="56" text-anchor="middle" font-family="monospace" font-size="6" fill="#ef4444">Detect</text>
    <rect x="112" y="20" width="56" height="44" fill="#1e293b" rx="4"/>
    <text x="140" y="40" text-anchor="middle" font-size="14">📋</text>
    <text x="140" y="56" text-anchor="middle" font-family="monospace" font-size="6" fill="#f97316">Runbooks</text>
    <rect x="184" y="20" width="56" height="44" fill="#1e293b" rx="4"/>
    <text x="212" y="40" text-anchor="middle" font-size="14">🔄</text>
    <text x="212" y="56" text-anchor="middle" font-family="monospace" font-size="6" fill="#fbbf24">Validate</text>
    <rect x="256" y="20" width="56" height="44" fill="#1e293b" rx="4"/>
    <text x="284" y="40" text-anchor="middle" font-size="14">🕸️</text>
    <text x="284" y="56" text-anchor="middle" font-family="monospace" font-size="6" fill="#a855f7">Graph</text>
    <rect x="328" y="20" width="56" height="44" fill="#1e293b" rx="4"/>
    <text x="356" y="40" text-anchor="middle" font-size="14">💥</text>
    <text x="356" y="56" text-anchor="middle" font-family="monospace" font-size="6" fill="#ec4899">Blast</text>
    <rect x="400" y="20" width="56" height="44" fill="#1e293b" rx="4"/>
    <text x="428" y="40" text-anchor="middle" font-size="14">📊</text>
    <text x="428" y="56" text-anchor="middle" font-family="monospace" font-size="6" fill="#3b82f6">Diff</text>
    <rect x="472" y="20" width="56" height="44" fill="#1e293b" rx="4"/>
    <text x="500" y="40" text-anchor="middle" font-size="14">🤖</text>
    <text x="500" y="56" text-anchor="middle" font-family="monospace" font-size="6" fill="#2dd4bf">Agent</text>
    <!-- Row 2 -->
    <rect x="40" y="78" width="56" height="44" fill="#1e293b" rx="4"/>
    <text x="68" y="98" text-anchor="middle" font-size="14">🔍</text>
    <text x="68" y="114" text-anchor="middle" font-family="monospace" font-size="6" fill="#22c55e">CodeView</text>
    <rect x="112" y="78" width="56" height="44" fill="#1e293b" rx="4"/>
    <text x="140" y="98" text-anchor="middle" font-size="14">📂</text>
    <text x="140" y="114" text-anchor="middle" font-family="monospace" font-size="6" fill="#f97316">Gallery</text>
    <rect x="184" y="78" width="56" height="44" fill="#1e293b" rx="4"/>
    <text x="212" y="98" text-anchor="middle" font-size="14">🌍</text>
    <text x="212" y="114" text-anchor="middle" font-family="monospace" font-size="6" fill="#3b82f6">18 Lang</text>
    <rect x="256" y="78" width="56" height="44" fill="#1e293b" rx="4"/>
    <text x="284" y="98" text-anchor="middle" font-size="14">📝</text>
    <text x="284" y="114" text-anchor="middle" font-family="monospace" font-size="6" fill="#fbbf24">Export</text>
    <rect x="328" y="78" width="56" height="44" fill="#1e293b" rx="4"/>
    <text x="356" y="98" text-anchor="middle" font-size="14">🔁</text>
    <text x="356" y="114" text-anchor="middle" font-family="monospace" font-size="6" fill="#a855f7">Regen</text>
    <rect x="400" y="78" width="56" height="44" fill="#1e293b" rx="4"/>
    <text x="428" y="98" text-anchor="middle" font-size="14">🎮</text>
    <text x="428" y="114" text-anchor="middle" font-family="monospace" font-size="6" fill="#ec4899">6 Demos</text>
    <rect x="472" y="78" width="56" height="44" fill="#1e293b" rx="4"/>
    <text x="500" y="98" text-anchor="middle" font-size="14">🎨</text>
    <text x="500" y="114" text-anchor="middle" font-family="monospace" font-size="6" fill="#ef4444">Pixel Art</text>
  </g>
  <!-- Big number -->
  <rect x="548" y="30" width="72" height="80" fill="#1e293b" rx="6" stroke="#f97316" stroke-width="1"/>
  <text x="584" y="82" text-anchor="middle" font-family="monospace" font-size="36" font-weight="bold" fill="#f97316" class="glow">21</text>
  <text x="584" y="100" text-anchor="middle" font-family="monospace" font-size="8" fill="#64748b">features</text>
  <rect x="0" y="148" width="640" height="4" fill="#374151" opacity="0.2"/>
</svg>