<svg xmlns="http://www.w3.org/2000/svg" viewBox="0 0 640 160">
  <rect width="640" height="160" fill="#0a0a1a"/>
  <rect x="16" y="12" width="160" height="128" fill="#1e293b" rx="6" stroke="#3b82f6" stroke-width="1.5"/>
  <text x="96" y="32" text-anchor="middle" font-family="monospace" font-size="9" fill="#3b82f6" font-weight="bold">🖥 Browser</text>
  <text x="28" y="50" font-family="monospace" font-size="7" fill="#64748b">React + Tailwind</text>
  <text x="28" y="66" font-family="monospace" font-size="7" fill="#64748b">D3 Graph</text>
  <text x="28" y="82" font-family="monospace" font-size="7" fill="#64748b">Zustand Store</text>
  <rect x="28" y="96" width="136" height="32" fill="#0f172a" rx="3" stroke="#ef4444" stroke-width="1"/>
  <text x="96" y="116" text-anchor="middle" font-family="monospace" font-size="8" fill="#ef4444">🦀 Rust WASM Engine</text>
  <rect x="188" y="60" width="44" height="4" fill="#f97316"/>
  <text x="210" y="56" text-anchor="middle" font-family="monospace" font-size="6" fill="#64748b">POST</text>
  <rect x="188" y="80" width="44" height="4" fill="#22c55e"/>
  <text x="210" y="94" text-anchor="middle" font-family="monospace" font-size="6" fill="#64748b">JSON</text>
  <rect x="240" y="12" width="160" height="128" fill="#1e293b" rx="6" stroke="#22c55e" stroke-width="1.5"/>
  <text x="320" y="32" text-anchor="middle" font-family="monospace" font-size="9" fill="#22c55e" font-weight="bold">⚙ FastAPI</text>
  <text x="252" y="50" font-family="monospace" font-size="7" fill="#64748b">Analysis Engine</text>
  <text x="252" y="66" font-family="monospace" font-size="7" fill="#64748b">Code Parser</text>
  <text x="252" y="82" font-family="monospace" font-size="7" fill="#64748b">Export Engine</text>
  <text x="252" y="98" font-family="monospace" font-size="7" fill="#64748b">Multilingual Svc</text>
  <rect x="412" y="60" width="44" height="4" fill="#fbbf24"/>
  <text x="434" y="56" text-anchor="middle" font-family="monospace" font-size="6" fill="#64748b">Function Call</text>
  <rect x="464" y="12" width="160" height="128" fill="#1e293b" rx="6" stroke="#f97316" stroke-width="1.5"/>
  <text x="544" y="32" text-anchor="middle" font-family="monospace" font-size="9" fill="#f97316" font-weight="bold">🧠 Mistral AI</text>
  <text x="544" y="48" text-anchor="middle" font-family="monospace" font-size="7" fill="#64748b">mistral-large-latest</text>
  <rect x="476" y="56" width="136" height="20" fill="#0f172a" rx="3"/>
  <text x="544" y="70" text-anchor="middle" font-family="monospace" font-size="6" fill="#ef4444">report_failure_scenarios</text>
  <rect x="476" y="80" width="136" height="20" fill="#0f172a" rx="3"/>
  <text x="544" y="94" text-anchor="middle" font-family="monospace" font-size="6" fill="#f97316">generate_runbook</text>
  <rect x="476" y="104" width="136" height="20" fill="#0f172a" rx="3"/>
  <text x="544" y="118" text-anchor="middle" font-family="monospace" font-size="6" fill="#a855f7">report_dependencies</text>
</svg>