<svg xmlns="http://www.w3.org/2000/svg" viewBox="0 0 640 160">
  <rect width="640" height="160" fill="#0a0a1a"/>
  <rect x="30" y="24" width="120" height="92" fill="#1e293b" rx="4"/>
  <text x="90" y="18" text-anchor="middle" font-family="monospace" font-size="9" fill="#64748b">1. PASTE CODE</text>
  <rect x="38" y="34" width="60" height="4" fill="#22c55e" opacity="0.6"/>
  <rect x="38" y="42" width="48" height="4" fill="#3b82f6" opacity="0.6"/>
  <rect x="38" y="50" width="72" height="4" fill="#f97316" opacity="0.6"/>
  <rect x="38" y="58" width="36" height="4" fill="#a855f7" opacity="0.6"/>
  <rect x="38" y="66" width="56" height="4" fill="#22c55e" opacity="0.6"/>
  <rect x="38" y="74" width="44" height="4" fill="#ef4444" opacity="0.6"/>
  <rect x="38" y="82" width="64" height="4" fill="#3b82f6" opacity="0.6"/>
  <rect x="166" y="66" width="28" height="4" fill="#f97316"/>
  <rect x="190" y="62" width="4" height="4" fill="#f97316"/>
  <rect x="190" y="70" width="4" height="4" fill="#f97316"/>
  <rect x="210" y="24" width="120" height="92" fill="#1e293b" rx="4" stroke="#f97316" stroke-width="1"/>
  <text x="270" y="18" text-anchor="middle" font-family="monospace" font-size="9" fill="#f97316">2. MISTRAL AI</text>
  <text x="270" y="52" text-anchor="middle" font-family="monospace" font-size="28">🧠</text>
  <rect x="224" y="68" width="92" height="4" fill="#f97316" opacity="0.3"/>
  <rect x="224" y="76" width="72" height="4" fill="#f97316" opacity="0.5"/>
  <rect x="224" y="84" width="84" height="4" fill="#f97316" opacity="0.3"/>
  <text x="270" y="108" text-anchor="middle" font-family="monospace" font-size="7" fill="#f97316">Function Calling × 3</text>
  <rect x="346" y="66" width="28" height="4" fill="#22c55e"/>
  <rect x="370" y="62" width="4" height="4" fill="#22c55e"/>
  <rect x="370" y="70" width="4" height="4" fill="#22c55e"/>
  <rect x="390" y="14" width="110" height="48" fill="#1e293b" rx="4"/>
  <text x="445" y="10" text-anchor="middle" font-family="monospace" font-size="9" fill="#22c55e">3. RUNBOOKS</text>
  <rect x="398" y="22" width="40" height="3" fill="#22c55e" opacity="0.7"/>
  <rect x="398" y="28" width="56" height="3" fill="#22c55e" opacity="0.5"/>
  <rect x="398" y="34" width="32" height="3" fill="#22c55e" opacity="0.7"/>
  <rect x="398" y="40" width="48" height="3" fill="#22c55e" opacity="0.5"/>
  <rect x="398" y="46" width="24" height="3" fill="#22c55e" opacity="0.7"/>
  <rect x="390" y="72" width="110" height="48" fill="#1e293b" rx="4"/>
  <text x="445" y="68" text-anchor="middle" font-family="monospace" font-size="9" fill="#a855f7">4. GRAPH</text>
  <circle cx="418" cy="92" r="8" fill="none" stroke="#3b82f6" stroke-width="2"/>
  <circle cx="448" cy="82" r="8" fill="none" stroke="#f97316" stroke-width="2"/>
  <circle cx="472" cy="98" r="8" fill="none" stroke="#ef4444" stroke-width="2"/>
  <line x1="426" y1="92" x2="440" y2="84" stroke="#64748b" stroke-width="1"/>
  <line x1="456" y1="82" x2="464" y2="94" stroke="#64748b" stroke-width="1"/>
  <rect x="518" y="56" width="28" height="4" fill="#a855f7"/>
  <text x="580" y="12" text-anchor="middle" font-family="monospace" font-size="9" fill="#fbbf24">5. SHIP IT!</text>
  <rect x="568" y="40" width="20" height="20" fill="#fbbf24" rx="2"/>
  <rect x="572" y="48" width="4" height="4" fill="#0a0a1a"/>
  <rect x="580" y="48" width="4" height="4" fill="#0a0a1a"/>
  <rect x="574" y="56" width="8" height="2" fill="#22c55e"/>
  <rect x="564" y="62" width="28" height="24" fill="#22c55e"/>
  <text x="580" y="32" text-anchor="middle" font-size="18">🎉</text>
  <rect x="0" y="148" width="640" height="4" fill="#374151" opacity="0.3"/>
</svg>