<svg xmlns="http://www.w3.org/2000/svg" viewBox="0 0 640 140">
  <rect width="640" height="140" fill="#0a0a1a"/>
  <rect x="30" y="14" width="64" height="44" fill="#1e293b" rx="4"/>
  <text x="62" y="36" text-anchor="middle" font-size="14">🔍</text>
  <text x="62" y="50" text-anchor="middle" font-family="monospace" font-size="6" fill="#ef4444">Detect</text>
  <rect x="106" y="14" width="64" height="44" fill="#1e293b" rx="4"/>
  <text x="138" y="36" text-anchor="middle" font-size="14">📋</text>
  <text x="138" y="50" text-anchor="middle" font-family="monospace" font-size="6" fill="#f97316">Runbooks</text>
  <rect x="182" y="14" width="64" height="44" fill="#1e293b" rx="4"/>
  <text x="214" y="36" text-anchor="middle" font-size="14">🔄</text>
  <text x="214" y="50" text-anchor="middle" font-family="monospace" font-size="6" fill="#fbbf24">Validate</text>
  <rect x="258" y="14" width="64" height="44" fill="#1e293b" rx="4"/>
  <text x="290" y="36" text-anchor="middle" font-size="14">🕸️</text>
  <text x="290" y="50" text-anchor="middle" font-family="monospace" font-size="6" fill="#a855f7">Graph</text>
  <rect x="334" y="14" width="64" height="44" fill="#1e293b" rx="4"/>
  <text x="366" y="36" text-anchor="middle" font-size="14">💥</text>
  <text x="366" y="50" text-anchor="middle" font-family="monospace" font-size="6" fill="#ec4899">Blast</text>
  <rect x="410" y="14" width="64" height="44" fill="#1e293b" rx="4"/>
  <text x="442" y="36" text-anchor="middle" font-size="14">📊</text>
  <text x="442" y="50" text-anchor="middle" font-family="monospace" font-size="6" fill="#3b82f6">Diff</text>
  <rect x="486" y="14" width="64" height="44" fill="#1e293b" rx="4"/>
  <text x="518" y="36" text-anchor="middle" font-size="14">🤖</text>
  <text x="518" y="50" text-anchor="middle" font-family="monospace" font-size="6" fill="#2dd4bf">Agent</text>
  <rect x="30" y="70" width="64" height="44" fill="#1e293b" rx="4"/>
  <text x="62" y="92" text-anchor="middle" font-size="14">💻</text>
  <text x="62" y="106" text-anchor="middle" font-family="monospace" font-size="6" fill="#22c55e">CodeView</text>
  <rect x="106" y="70" width="64" height="44" fill="#1e293b" rx="4"/>
  <text x="138" y="92" text-anchor="middle" font-size="14">📂</text>
  <text x="138" y="106" text-anchor="middle" font-family="monospace" font-size="6" fill="#f97316">Gallery</text>
  <rect x="182" y="70" width="64" height="44" fill="#1e293b" rx="4"/>
  <text x="214" y="92" text-anchor="middle" font-size="14">🌍</text>
  <text x="214" y="106" text-anchor="middle" font-family="monospace" font-size="6" fill="#3b82f6">18 Lang</text>
  <rect x="258" y="70" width="64" height="44" fill="#1e293b" rx="4"/>
  <text x="290" y="92" text-anchor="middle" font-size="14">📝</text>
  <text x="290" y="106" text-anchor="middle" font-family="monospace" font-size="6" fill="#fbbf24">Export</text>
  <rect x="334" y="70" width="64" height="44" fill="#1e293b" rx="4"/>
  <text x="366" y="92" text-anchor="middle" font-size="14">🔁</text>
  <text x="366" y="106" text-anchor="middle" font-family="monospace" font-size="6" fill="#a855f7">Regen</text>
  <rect x="410" y="70" width="64" height="44" fill="#1e293b" rx="4"/>
  <text x="442" y="92" text-anchor="middle" font-size="14">🎮</text>
  <text x="442" y="106" text-anchor="middle" font-family="monospace" font-size="6" fill="#ec4899">6 Demos</text>
  <rect x="486" y="70" width="64" height="44" fill="#1e293b" rx="4"/>
  <text x="518" y="92" text-anchor="middle" font-size="14">🎨</text>
  <text x="518" y="106" text-anchor="middle" font-family="monospace" font-size="6" fill="#ef4444">Pixel Art</text>
  <rect x="564" y="30" width="60" height="70" fill="#1e293b" rx="6" stroke="#f97316" stroke-width="1"/>
  <text x="594" y="74" text-anchor="middle" font-family="monospace" font-size="32" font-weight="bold" fill="#f97316">21</text>
  <text x="594" y="90" text-anchor="middle" font-family="monospace" font-size="8" fill="#64748b">features</text>
</svg>