<svg xmlns="http://www.w3.org/2000/svg" viewBox="0 0 640 100">
  <rect width="640" height="100" fill="#0a0a1a"/>
  <rect x="20" y="10" width="140" height="24" fill="#1e293b" rx="4"/>
  <text x="46" y="26" font-family="monospace" font-size="7" fill="#22c55e">GET</text>
  <text x="74" y="26" font-family="monospace" font-size="7" fill="#64748b">/health</text>
  <rect x="176" y="10" width="140" height="24" fill="#1e293b" rx="4"/>
  <text x="196" y="26" font-family="monospace" font-size="7" fill="#f97316">POST</text>
  <text x="228" y="26" font-family="monospace" font-size="7" fill="#64748b">/analyze</text>
  <rect x="332" y="10" width="140" height="24" fill="#1e293b" rx="4"/>
  <text x="352" y="26" font-family="monospace" font-size="7" fill="#f97316">POST</text>
  <text x="384" y="26" font-family="monospace" font-size="7" fill="#64748b">/analyze/multi</text>
  <rect x="488" y="10" width="140" height="24" fill="#1e293b" rx="4"/>
  <text x="508" y="26" font-family="monospace" font-size="7" fill="#3b82f6">POST</text>
  <text x="540" y="26" font-family="monospace" font-size="7" fill="#64748b">/export</text>
  <rect x="20" y="42" width="140" height="24" fill="#1e293b" rx="4"/>
  <text x="46" y="58" font-family="monospace" font-size="7" fill="#22c55e">GET</text>
  <text x="74" y="58" font-family="monospace" font-size="7" fill="#64748b">/demo</text>
  <rect x="176" y="42" width="140" height="24" fill="#1e293b" rx="4"/>
  <text x="196" y="58" font-family="monospace" font-size="7" fill="#a855f7">POST</text>
  <text x="228" y="58" font-family="monospace" font-size="7" fill="#64748b">/translate</text>
  <rect x="332" y="42" width="140" height="24" fill="#1e293b" rx="4"/>
  <text x="352" y="58" font-family="monospace" font-size="7" fill="#ec4899">POST</text>
  <text x="384" y="58" font-family="monospace" font-size="7" fill="#64748b">/runbook/{id}</text>
  <rect x="488" y="42" width="140" height="24" fill="#1e293b" rx="4"/>
  <text x="508" y="58" font-family="monospace" font-size="7" fill="#22c55e">GET</text>
  <text x="540" y="58" font-family="monospace" font-size="7" fill="#64748b">/languages</text>
  <rect x="220" y="74" width="200" height="18" fill="#1e293b" rx="10" stroke="#22c55e" stroke-width="0.5"/>
  <text x="320" y="87" text-anchor="middle" font-family="monospace" font-size="8" fill="#22c55e">Swagger UI at /docs</text>
</svg>