<svg xmlns="http://www.w3.org/2000/svg" viewBox="0 0 640 160">
  <rect width="640" height="160" fill="#0a0a1a"/>
  <text x="140" y="20" text-anchor="middle" font-family="monospace" font-size="14" font-weight="bold" fill="#ef4444">BEFORE</text>
  <rect x="80" y="30" width="20" height="20" fill="#fbbf24" rx="2"/>
  <rect x="84" y="38" width="4" height="4" fill="#0a0a1a"/>
  <rect x="92" y="38" width="4" height="4" fill="#0a0a1a"/>
  <rect x="86" y="46" width="8" height="3" fill="#ef4444"/>
  <rect x="76" y="52" width="28" height="28" fill="#3b82f6"/>
  <rect x="104" y="28" width="4" height="6" fill="#60a5fa" opacity="0.6"/>
  <rect x="140" y="30" width="60" height="72" fill="#1e293b" rx="3"/>
  <rect x="148" y="38" width="32" height="4" fill="#ef4444" opacity="0.6"/>
  <rect x="148" y="46" width="24" height="4" fill="#ef4444" opacity="0.4"/>
  <rect x="148" y="54" width="36" height="4" fill="#ef4444" opacity="0.6"/>
  <rect x="148" y="62" width="20" height="4" fill="#ef4444" opacity="0.4"/>
  <rect x="148" y="70" width="28" height="4" fill="#ef4444" opacity="0.6"/>
  <rect x="188" y="38" width="6" height="6" fill="#ef4444"/>
  <rect x="188" y="54" width="6" height="6" fill="#ef4444"/>
  <rect x="188" y="70" width="6" height="6" fill="#ef4444"/>
  <rect x="120" y="110" width="80" height="16" fill="#7f1d1d" rx="2"/>
  <text x="160" y="122" text-anchor="middle" font-family="monospace" font-size="8" fill="#ef4444">STALE RUNBOOK</text>
  <rect x="280" y="66" width="12" height="8" fill="#f97316"/>
  <rect x="296" y="66" width="12" height="8" fill="#fbbf24"/>
  <rect x="312" y="66" width="12" height="8" fill="#22c55e"/>
  <rect x="328" y="66" width="12" height="8" fill="#3b82f6"/>
  <rect x="344" y="62" width="4" height="4" fill="#22c55e"/>
  <rect x="344" y="72" width="4" height="4" fill="#22c55e"/>
  <rect x="348" y="66" width="8" height="8" fill="#22c55e"/>
  <text x="320" y="56" text-anchor="middle" font-family="monospace" font-size="10" fill="#f97316">⚡ REFLEX</text>
  <text x="500" y="20" text-anchor="middle" font-family="monospace" font-size="14" font-weight="bold" fill="#22c55e">AFTER</text>
  <rect x="440" y="30" width="20" height="20" fill="#fbbf24" rx="2"/>
  <rect x="444" y="38" width="4" height="4" fill="#0a0a1a"/>
  <rect x="452" y="38" width="4" height="4" fill="#0a0a1a"/>
  <rect x="446" y="46" width="8" height="3" fill="#22c55e"/>
  <rect x="436" y="52" width="28" height="28" fill="#22c55e"/>
  <rect x="428" y="50" width="8" height="4" fill="#22c55e"/>
  <rect x="464" y="50" width="8" height="4" fill="#22c55e"/>
  <rect x="470" y="30" width="6" height="4" fill="#ec4899"/>
  <rect x="480" y="24" width="6" height="4" fill="#ec4899"/>
  <rect x="500" y="30" width="60" height="72" fill="#1e293b" rx="3"/>
  <rect x="508" y="38" width="32" height="4" fill="#22c55e" opacity="0.7"/>
  <rect x="508" y="46" width="24" height="4" fill="#22c55e" opacity="0.5"/>
  <rect x="508" y="54" width="36" height="4" fill="#22c55e" opacity="0.7"/>
  <rect x="508" y="62" width="20" height="4" fill="#22c55e" opacity="0.5"/>
  <rect x="508" y="70" width="28" height="4" fill="#22c55e" opacity="0.7"/>
  <rect x="548" y="38" width="6" height="6" fill="#22c55e"/>
  <rect x="548" y="54" width="6" height="6" fill="#22c55e"/>
  <rect x="548" y="70" width="6" height="6" fill="#22c55e"/>
  <rect x="490" y="110" width="80" height="16" fill="#064e3b" rx="2"/>
  <text x="530" y="122" text-anchor="middle" font-family="monospace" font-size="8" fill="#22c55e">PRODUCTION READY</text>
  <rect x="0" y="148" width="640" height="4" fill="#374151" opacity="0.3"/>
</svg>