<svg xmlns="http://www.w3.org/2000/svg" viewBox="0 0 640 160">
  <rect width="640" height="160" fill="#0a0a1a"/>
  <rect x="40" y="16" width="80" height="44" fill="#1e293b" rx="4"/>
  <text x="80" y="46" text-anchor="middle" font-family="monospace" font-size="24" font-weight="bold" fill="#ef4444">3:00</text>
  <text x="80" y="12" text-anchor="middle" font-family="monospace" font-size="8" fill="#ef4444">AM</text>
  <rect x="160" y="24" width="32" height="48" fill="#374151" rx="4"/>
  <rect x="164" y="30" width="24" height="28" fill="#ef4444" opacity="0.3"/>
  <text x="176" y="50" text-anchor="middle" font-family="monospace" font-size="14" fill="#ef4444">🔔</text>
  <rect x="196" y="32" width="8" height="4" fill="#ef4444" opacity="0.6"/>
  <rect x="200" y="24" width="8" height="4" fill="#ef4444" opacity="0.4"/>
  <rect x="40" y="82" width="100" height="40" fill="#1e293b" rx="4"/>
  <rect x="40" y="72" width="24" height="20" fill="#fbbf24" rx="2"/>
  <rect x="44" y="80" width="4" height="2" fill="#0a0a1a"/>
  <rect x="52" y="80" width="4" height="2" fill="#0a0a1a"/>
  <rect x="36" y="122" width="108" height="8" fill="#78350f"/>
  <rect x="260" y="20" width="120" height="100" fill="#1e293b" rx="4"/>
  <text x="320" y="42" text-anchor="middle" font-family="monospace" font-size="9" fill="#64748b">RUNBOOK v2.1</text>
  <text x="320" y="54" text-anchor="middle" font-family="monospace" font-size="7" fill="#ef4444">Last updated: 6 months ago</text>
  <rect x="272" y="62" width="60" height="4" fill="#374151"/>
  <rect x="272" y="70" width="48" height="4" fill="#374151"/>
  <rect x="272" y="78" width="72" height="4" fill="#374151"/>
  <rect x="272" y="86" width="36" height="4" fill="#374151"/>
  <rect x="272" y="94" width="56" height="4" fill="#374151"/>
  <line x1="280" y1="30" x2="360" y2="110" stroke="#ef4444" stroke-width="6" opacity="0.4"/>
  <line x1="360" y1="30" x2="280" y2="110" stroke="#ef4444" stroke-width="6" opacity="0.4"/>
  <text x="320" y="138" text-anchor="middle" font-family="monospace" font-size="9" fill="#ef4444">⚠ OUTDATED • COMMANDS BROKEN</text>
  <rect x="460" y="40" width="20" height="20" fill="#fbbf24" rx="2"/>
  <rect x="464" y="48" width="4" height="4" fill="#0a0a1a"/>
  <rect x="472" y="48" width="4" height="4" fill="#0a0a1a"/>
  <rect x="466" y="56" width="8" height="3" fill="#ef4444"/>
  <rect x="456" y="62" width="28" height="28" fill="#3b82f6"/>
  <text x="500" y="40" font-family="monospace" font-size="16" fill="#f97316">?</text>
  <text x="516" y="52" font-family="monospace" font-size="12" fill="#ef4444">?</text>
  <text x="444" y="36" font-family="monospace" font-size="14" fill="#fbbf24">?</text>
  <rect x="520" y="50" width="60" height="40" fill="#1e293b" rx="2"/>
  <rect x="524" y="54" width="52" height="32" fill="#0f172a"/>
  <rect x="528" y="58" width="24" height="3" fill="#ef4444" opacity="0.8"/>
  <rect x="528" y="64" width="36" height="3" fill="#ef4444" opacity="0.6"/>
  <rect x="528" y="70" width="18" height="3" fill="#ef4444" opacity="0.8"/>
  <rect x="0" y="150" width="640" height="4" fill="#374151" opacity="0.3"/>
</svg>